<?xml version="1.0" encoding="utf-8"?>
<!-- Generator: Adobe Illustrator 24.3.0, SVG Export Plug-In . SVG Version: 6.00 Build 0)  -->
<svg version="1.1" xmlns="http://www.w3.org/2000/svg" xmlns:xlink="http://www.w3.org/1999/xlink" x="0px" y="0px"
	 viewBox="0 0 512 512" style="enable-background:new 0 0 512 512;" xml:space="preserve">
<style type="text/css">
	.st0{display:none;}
	.st1{fill:none;stroke:#000000;stroke-width:5;stroke-miterlimit:10;}
	.st2{fill:none;stroke:#000000;stroke-width:8;stroke-miterlimit:10;}
</style>
<g id="Capa_1" class="st0">
	
		<image style="display:inline;overflow:visible;" width="362" height="337" xlink:href="E7427FEB.jpg"  transform="matrix(2.2099 0 0 2.2099 256 -544)">
	</image>
</g>
<g id="work">
	<g>
		<path class="st1" d="M505.6,100.2v356.3c0,21.7-17.2,39.3-38.5,39.3H44.5C23.2,495.8,6,478.2,6,456.5V100.2
			c0-21.7,17.2-39.3,38.5-39.3h51.4V105c0,9.5,6.9,17.7,16.2,18.5c10.6,0.9,19.4-7.5,19.4-18.1V60.9h252V105
			c0,9.5,6.9,17.7,16.2,18.5c10.6,0.9,19.4-7.5,19.4-18.1V60.9H467C488.3,60.9,505.6,78.5,505.6,100.2z"/>
		<path class="st1" d="M131.6,24.2v80.4c0,9.5-6.9,17.7-16.2,18.5c-10.6,0.9-19.4-7.5-19.4-18.1V24.6c0-9.2,6.6-17.3,15.6-18.4
			c5.8-0.7,11.1,1.4,14.8,5.2C129.6,14.6,131.6,19.1,131.6,24.2z"/>
		<path class="st1" d="M419.2,24.2v80.4c0,9.5-6.9,17.7-16.2,18.5c-10.6,0.9-19.4-7.5-19.4-18.1V24.6c0-9.2,6.6-17.3,15.6-18.4
			c5.8-0.7,11.1,1.4,14.8,5.2C417.2,14.6,419.2,19.1,419.2,24.2z"/>
		<line class="st1" x1="6.4" y1="159" x2="506" y2="159"/>
		<g>
			<g>
				<path d="M341.6,182.4l22.2,22.7l22.2-22.7l4.6,4.6l-22.3,22.7l22.3,22.7l-4.6,4.6l-22.2-22.7l-22.2,22.7l-4.6-4.6l22.2-22.7
					L337,186.9L341.6,182.4z"/>
			</g>
		</g>
		<g>
			<g>
				<path d="M447,182.4l22.2,22.7l22.2-22.7l4.6,4.6l-22.3,22.7l22.3,22.7l-4.6,4.6l-22.2-22.7L447,236.9l-4.6-4.6l22.2-22.7
					l-22.2-22.7L447,182.4z"/>
			</g>
		</g>
		<g>
			<g>
				<path d="M25.4,285.6l22.2,22.7l22.2-22.7l4.6,4.6L52,312.8l22.3,22.7l-4.6,4.6l-22.2-22.7l-22.2,22.7l-4.6-4.6L43,312.8
					l-22.2-22.7L25.4,285.6z"/>
			</g>
		</g>
		<g>
			<g>
				<path d="M236.2,285.6l22.2,22.7l22.2-22.7l4.6,4.6l-22.3,22.7l22.3,22.7l-4.6,4.6l-22.2-22.7l-22.2,22.7l-4.6-4.6l22.2-22.7
					l-22.2-22.7L236.2,285.6z"/>
			</g>
		</g>
		<g>
			<g>
				<path d="M25.4,399.1l22.2,22.7l22.2-22.7l4.6,4.6L52,426.3L74.2,449l-4.6,4.6l-22.2-22.7l-22.2,22.7l-4.6-4.6L43,426.3
					l-22.2-22.7L25.4,399.1z"/>
			</g>
		</g>
		<g>
			<g>
				<path d="M236.2,399.1l22.2,22.7l22.2-22.7l4.6,4.6l-22.3,22.7l22.3,22.7l-4.6,4.6l-22.2-22.7l-22.2,22.7l-4.6-4.6l22.2-22.7
					l-22.2-22.7L236.2,399.1z"/>
			</g>
		</g>
		<g>
			<polyline class="st2" points="122.7,313.5 141.8,333 183.2,292.6 			"/>
		</g>
		<g>
			<polyline class="st2" points="333.5,313.5 352.6,333 394,292.6 			"/>
		</g>
		<g>
			<polyline class="st2" points="438.9,313.5 458,333 499.5,292.6 			"/>
		</g>
		<g>
			<polyline class="st2" points="122.7,427 141.8,446.5 183.2,406.1 			"/>
		</g>
	</g>
</g>
</svg>
